<?xml version="1.0" encoding="UTF-8" standalone="no"?>
<!-- Created with Inkscape (http://www.inkscape.org/) -->

<svg
   width="210mm"
   height="210mm"
   viewBox="0 0 210 210"
   version="1.1"
   id="svg1"
   inkscape:version="1.3 (1:1.3+202307231459+0e150ed6c4)"
   sodipodi:docname="hamiparm-logo.svg"
   xml:space="preserve"
   xmlns:inkscape="http://www.inkscape.org/namespaces/inkscape"
   xmlns:sodipodi="http://sodipodi.sourceforge.net/DTD/sodipodi-0.dtd"
   xmlns="http://www.w3.org/2000/svg"
   xmlns:svg="http://www.w3.org/2000/svg"><sodipodi:namedview
     id="namedview1"
     pagecolor="#ffffff"
     bordercolor="#000000"
     borderopacity="0.25"
     inkscape:showpageshadow="2"
     inkscape:pageopacity="0.0"
     inkscape:pagecheckerboard="0"
     inkscape:deskcolor="#d1d1d1"
     inkscape:document-units="mm"
     inkscape:zoom="0.70555556"
     inkscape:cx="508.8189"
     inkscape:cy="599.52756"
     inkscape:window-width="1874"
     inkscape:window-height="1016"
     inkscape:window-x="46"
     inkscape:window-y="787"
     inkscape:window-maximized="1"
     inkscape:current-layer="g46"
     showguides="true"><sodipodi:guide
       position="240.57939,55.637604"
       orientation="0,-1"
       id="guide2"
       inkscape:locked="false" /></sodipodi:namedview><defs
     id="defs1" /><g
     inkscape:groupmode="layer"
     id="layer2"
     inkscape:label="maze"
     style="display:none"
     sodipodi:insensitive="true"><g
       id="g30"
       transform="translate(16.954169,-42.065894)"><path
         style="fill:none;stroke:#491491;stroke-width:3.8;stroke-linecap:square;stroke-linejoin:miter;stroke-dasharray:none;stroke-opacity:1"
         d="M 7.0059957,104.48118 7.0069323,96.939 H 14.355 v -7.225505"
         id="path1"
         sodipodi:nodetypes="cccc" /><path
         style="fill:none;stroke:#491491;stroke-width:3.8;stroke-linecap:square;stroke-linejoin:miter;stroke-dasharray:none;stroke-opacity:1"
         d="m 28.704853,90.309153 -7.542176,-9.37e-4 v -7.348068 h -7.225505"
         id="path1-6"
         sodipodi:nodetypes="cccc" /><path
         style="fill:none;stroke:#491491;stroke-width:3.8;stroke-linecap:square;stroke-linejoin:miter;stroke-dasharray:none;stroke-opacity:1"
         d="m 36.221881,90.169025 0.0038,-7.542175 -7.348066,-0.0046 0.0046,-7.225504"
         id="path1-6-2"
         sodipodi:nodetypes="cccc" /><path
         style="fill:none;stroke:#491491;stroke-width:3.8;stroke-linecap:square;stroke-linejoin:miter;stroke-dasharray:none;stroke-opacity:1"
         d="m 50.794591,82.741012 -7.542175,0.0038 -0.0046,-7.348066 -7.225504,0.0046"
         id="path1-6-2-3"
         sodipodi:nodetypes="cccc" /><path
         style="fill:none;stroke:#491491;stroke-width:3.8;stroke-linecap:square;stroke-linejoin:miter;stroke-dasharray:none;stroke-opacity:1"
         d="m 58.228581,82.621779 0.0038,7.542175 -7.348066,0.0046 0.0046,7.225504"
         id="path1-6-2-3-2"
         sodipodi:nodetypes="cccc" /><path
         style="fill:none;stroke:#491491;stroke-width:3.8;stroke-linecap:square;stroke-linejoin:miter;stroke-dasharray:none;stroke-opacity:1"
         d="m 49.058967,104.08273 7.542174,0.004 0.005,-7.348066 7.2255,0.0046"
         id="path1-6-2-3-2-7"
         sodipodi:nodetypes="cccc" /><path
         style="fill:none;stroke:#491491;stroke-width:3.8;stroke-linecap:square;stroke-linejoin:miter;stroke-dasharray:none;stroke-opacity:1"
         d="m 57.757824,118.87865 -0.004,-7.54217 7.34807,-0.005 -0.005,-7.2255"
         id="path1-6-2-3-2-7-2"
         sodipodi:nodetypes="cccc" /><path
         style="fill:none;stroke:#491491;stroke-width:3.8;stroke-linecap:square;stroke-linejoin:miter;stroke-dasharray:none;stroke-opacity:1"
         d="m 58.232331,125.62798 -7.54217,0.004 -0.005,-7.34807 -7.2255,0.005"
         id="path1-6-2-3-2-7-2-9"
         sodipodi:nodetypes="cccc" /><path
         style="fill:none;stroke:#491491;stroke-width:3.8;stroke-linecap:square;stroke-linejoin:miter;stroke-dasharray:none;stroke-opacity:1"
         d="m 43.366768,133.05658 0.004,-7.54217 -7.34807,-0.005 0.005,-7.2255"
         id="path1-6-2-3-2-7-2-9-9"
         sodipodi:nodetypes="cccc" /><path
         style="fill:none;stroke:#491491;stroke-width:3.8;stroke-linecap:square;stroke-linejoin:miter;stroke-dasharray:none;stroke-opacity:1"
         d="m 36.049242,133.05258 -7.54217,0.004 -0.005,-7.34807 -7.2255,0.005"
         id="path1-6-2-3-2-7-2-9-9-1"
         sodipodi:nodetypes="cccc" /><path
         style="fill:none;stroke:#491491;stroke-width:3.8;stroke-linecap:square;stroke-linejoin:miter;stroke-dasharray:none;stroke-opacity:1"
         d="m 13.942179,125.70945 -0.004,-7.54217 7.34807,-0.005 -0.005,-7.2255"
         id="path1-6-2-3-2-7-2-9-9-1-1"
         sodipodi:nodetypes="cccc" /><path
         style="fill:none;stroke:#491491;stroke-width:3.8;stroke-linecap:square;stroke-linejoin:miter;stroke-dasharray:none;stroke-opacity:1"
         d="m 22.253353,104.57402 -7.54217,-0.004 -0.005,7.34807 -7.2254962,-0.005"
         id="path1-6-2-3-2-7-2-9-9-1-1-8"
         sodipodi:nodetypes="cccc" /><path
         style="fill:none;stroke:#491491;stroke-width:3.8;stroke-linecap:square;stroke-linejoin:miter;stroke-dasharray:none;stroke-opacity:1"
         d="m 43.213565,90.167828 0.004,7.54217 -7.348074,0.005 0.005,4.546192"
         id="path1-6-2-3-2-7-2-9-9-1-1-8-3"
         sodipodi:nodetypes="cccc" /><path
         style="fill:none;stroke:#491491;stroke-width:3.8;stroke-linecap:square;stroke-linejoin:miter;stroke-dasharray:none;stroke-opacity:1"
         d="m 21.756892,97.311644 7.542168,-0.004 0.005,4.961626"
         id="path1-6-2-3-2-7-2-9-9-1-1-8-3-6"
         sodipodi:nodetypes="ccc" /><path
         style="fill:none;stroke:#491491;stroke-width:3.8;stroke-linecap:square;stroke-linejoin:miter;stroke-dasharray:none;stroke-opacity:1"
         d="m 29.003135,118.47676 -0.004,-8.7223 7.087251,-0.005"
         id="path1-6-2-3-2-7-2-9-9-1-1-8-3-6-6"
         sodipodi:nodetypes="ccc" /><path
         style="fill:none;stroke:#491491;stroke-width:3.8;stroke-linecap:square;stroke-linejoin:miter;stroke-dasharray:none;stroke-opacity:1"
         d="m 50.206479,110.96152 -7.406935,0.004 -0.005,-4.87614"
         id="path1-6-2-3-2-7-2-9-9-1-1-8-3-6-6-4"
         sodipodi:nodetypes="ccc" /></g></g><g
     inkscape:groupmode="layer"
     id="g47"
     inkscape:label="maze copy"
     style="display:inline"><g
       id="g46"
       transform="matrix(3.2757636,0,0,3.2768191,-14.007788,-237.02043)"
       style="fill:none;stroke-width:2.96066;stroke-dasharray:none"><path
         style="fill:none;stroke:#f2eafc;stroke-width:2.96066;stroke-linecap:square;stroke-linejoin:miter;stroke-dasharray:none;stroke-opacity:1"
         d="M 7.0059957,104.48118 7.0069323,96.939 H 14.355 v -7.225505"
         id="path31"
         sodipodi:nodetypes="cccc" /><path
         style="fill:none;stroke:#f2eafc;stroke-width:2.96066;stroke-linecap:square;stroke-linejoin:miter;stroke-dasharray:none;stroke-opacity:1"
         d="m 28.704853,90.309153 -7.542176,-9.37e-4 v -7.348068 h -7.225505"
         id="path32"
         sodipodi:nodetypes="cccc" /><path
         style="fill:none;stroke:#f2eafc;stroke-width:2.96066;stroke-linecap:square;stroke-linejoin:miter;stroke-dasharray:none;stroke-opacity:1"
         d="m 36.221881,90.169025 0.0038,-7.542175 -7.348066,-0.0046 0.0046,-7.225504"
         id="path33"
         sodipodi:nodetypes="cccc" /><path
         style="fill:none;stroke:#f2eafc;stroke-width:2.96066;stroke-linecap:square;stroke-linejoin:miter;stroke-dasharray:none;stroke-opacity:1"
         d="m 50.794591,82.741012 -7.542175,0.0038 -0.0046,-7.348066 -7.225504,0.0046"
         id="path34"
         sodipodi:nodetypes="cccc" /><path
         style="fill:none;stroke:#f2eafc;stroke-width:2.96066;stroke-linecap:square;stroke-linejoin:miter;stroke-dasharray:none;stroke-opacity:1"
         d="m 58.228581,82.621779 0.0038,7.542175 -7.348066,0.0046 0.0046,7.225504"
         id="path35"
         sodipodi:nodetypes="cccc" /><path
         style="fill:none;stroke:#f2eafc;stroke-width:2.96066;stroke-linecap:square;stroke-linejoin:miter;stroke-dasharray:none;stroke-opacity:1"
         d="m 49.058967,104.08273 7.542174,0.004 0.005,-7.348066 7.2255,0.0046"
         id="path36"
         sodipodi:nodetypes="cccc" /><path
         style="fill:none;stroke:#f2eafc;stroke-width:2.96066;stroke-linecap:square;stroke-linejoin:miter;stroke-dasharray:none;stroke-opacity:1"
         d="m 57.757824,118.87865 -0.004,-7.54217 7.34807,-0.005 -0.005,-7.2255"
         id="path37"
         sodipodi:nodetypes="cccc" /><path
         style="fill:none;stroke:#f2eafc;stroke-width:2.96066;stroke-linecap:square;stroke-linejoin:miter;stroke-dasharray:none;stroke-opacity:1"
         d="m 58.232331,125.62798 -7.54217,0.004 -0.005,-7.34807 -7.2255,0.005"
         id="path38"
         sodipodi:nodetypes="cccc" /><path
         style="fill:none;stroke:#f2eafc;stroke-width:2.96066;stroke-linecap:square;stroke-linejoin:miter;stroke-dasharray:none;stroke-opacity:1"
         d="m 43.366768,133.05658 0.004,-7.54217 -7.34807,-0.005 0.005,-7.2255"
         id="path39"
         sodipodi:nodetypes="cccc" /><path
         style="fill:none;stroke:#f2eafc;stroke-width:2.96066;stroke-linecap:square;stroke-linejoin:miter;stroke-dasharray:none;stroke-opacity:1"
         d="m 36.049242,133.05258 -7.54217,0.004 -0.005,-7.34807 -7.2255,0.005"
         id="path40"
         sodipodi:nodetypes="cccc" /><path
         style="fill:none;stroke:#f2eafc;stroke-width:2.96066;stroke-linecap:square;stroke-linejoin:miter;stroke-dasharray:none;stroke-opacity:1"
         d="m 13.942179,125.70945 -0.004,-7.54217 7.34807,-0.005 -0.005,-7.2255"
         id="path41"
         sodipodi:nodetypes="cccc" /><path
         style="fill:none;stroke:#f2eafc;stroke-width:2.96066;stroke-linecap:square;stroke-linejoin:miter;stroke-dasharray:none;stroke-opacity:1"
         d="m 22.253353,104.57402 -7.54217,-0.004 -0.005,7.34807 -7.2254962,-0.005"
         id="path42"
         sodipodi:nodetypes="cccc" /><path
         style="fill:none;stroke:#f2eafc;stroke-width:2.96066;stroke-linecap:square;stroke-linejoin:miter;stroke-dasharray:none;stroke-opacity:1"
         d="m 43.213565,90.167828 0.004,7.54217 -7.348074,0.005 0.005,4.546192"
         id="path43"
         sodipodi:nodetypes="cccc" /><path
         style="fill:none;stroke:#f2eafc;stroke-width:2.96066;stroke-linecap:square;stroke-linejoin:miter;stroke-dasharray:none;stroke-opacity:1"
         d="m 21.756892,97.311644 7.542168,-0.004 0.005,4.961626"
         id="path44"
         sodipodi:nodetypes="ccc" /><path
         style="fill:none;stroke:#f2eafc;stroke-width:2.96066;stroke-linecap:square;stroke-linejoin:miter;stroke-dasharray:none;stroke-opacity:1"
         d="m 29.003135,118.47676 -0.004,-8.7223 7.087251,-0.005"
         id="path45"
         sodipodi:nodetypes="ccc" /><path
         style="fill:none;stroke:#f2eafc;stroke-width:2.96066;stroke-linecap:square;stroke-linejoin:miter;stroke-dasharray:none;stroke-opacity:1"
         d="m 50.206479,110.96152 -7.406935,0.004 -0.005,-4.87614"
         id="path46"
         sodipodi:nodetypes="ccc" /></g></g><g
     inkscape:groupmode="layer"
     id="layer3"
     inkscape:label="name"
     style="stroke:#000000;stroke-width:0.9;stroke-dasharray:none;stroke-opacity:1"
     sodipodi:insensitive="true"><g
       id="g20"
       style="stroke:#666666;stroke-width:0.9;stroke-dasharray:none;stroke-opacity:1"
       transform="translate(-72.869034,3.4310613)"><path
         style="fill:none;fill-opacity:1;stroke:#666666;stroke-width:0.9;stroke-linecap:square;stroke-linejoin:miter;stroke-dasharray:none;stroke-opacity:1"
         d="M 86.429224,99.959213 V 93.898352 H 82.153 v 21.133818 h 4.270478 v -6.24571"
         id="path3"
         sodipodi:nodetypes="cccccc" /><path
         style="fill:none;fill-opacity:1;stroke:#666666;stroke-width:0.9;stroke-linecap:square;stroke-linejoin:miter;stroke-dasharray:none;stroke-opacity:1"
         d="m 84.241599,96.07384 v 6.0531 l 10.800401,6e-5 v -8.22305"
         id="path4"
         sodipodi:nodetypes="cccc" /><path
         style="fill:none;fill-opacity:1;stroke:#666666;stroke-width:0.9;stroke-linecap:square;stroke-linejoin:miter;stroke-dasharray:none;stroke-opacity:1"
         d="m 97.48681,102.127 v -8.233216 h 2.055021 v 21.134036"
         id="path5"
         sodipodi:nodetypes="cccc" /><path
         style="fill:none;fill-opacity:1;stroke:#666666;stroke-width:0.9;stroke-linecap:square;stroke-linejoin:miter;stroke-dasharray:none;stroke-opacity:1"
         d="m 84.243036,104.5212 h 13.216683 v 10.51031 l -2.380559,1.7e-4 v -8.39773 l -10.837561,-0.002 v 6.29447"
         id="path6"
         sodipodi:nodetypes="ccccccc" /></g><path
       style="fill:none;fill-opacity:1;stroke:#666666;stroke-width:0.9;stroke-linecap:square;stroke-linejoin:miter;stroke-dasharray:none;stroke-opacity:1"
       d="m 46.188976,115.85606 h -5.87497 l -1.17863,2.605 h -4.88867 l 9.38007,-21.132134 h 1.31708 l 9.49408,21.132134 h -4.54388 l -2.19139,-4.68906 h -8.99588 l -1.09369,2.71493"
       id="path7"
       sodipodi:nodetypes="ccccccccccc" /><path
       style="fill:none;fill-opacity:1;stroke:#666666;stroke-width:0.9;stroke-linecap:square;stroke-linejoin:miter;stroke-dasharray:none;stroke-opacity:1"
       d="m 42.636536,110.0441 1.61752,-3.59091 2.54565,5.31573 h -7.12425 l 4.5786,-10.56816 7.1311,15.40845"
       id="path8" /><path
       style="color:#000000;fill:#666666;fill-opacity:1;stroke:none;stroke-width:0.9;stroke-linecap:square;stroke-dasharray:none"
       d="m 66.468856,104.20645 -1.94336,12.04297 -0.0857,0.58171 0.90203,0.006 0.0723,-0.44336 1.52149,-9.42969 6.2539,11.58399 0.20593,0.36299 h 1.02064 l -0.4336,-0.79069 z"
       id="path9"
       sodipodi:nodetypes="ccccccccccc" /><path
       style="color:#000000;fill:#666666;fill-opacity:1;stroke:none;stroke-width:0.9;stroke-linecap:square;stroke-dasharray:none"
       d="m 65.208866,96.880201 -3.15993,22.030859 h 5.23828 l 0.94922,-6.22414 0.0703,-0.44336 -0.73661,-1.3922 -0.22241,1.69884 -0.83203,5.46047 h -3.42579 l 2.64649,-17.99367 9.79687,18.33398 3.09571,-5.85156 0.21093,-0.39844 -10e-6,-1.76269 -1.00585,1.73925 -2.30468,4.35938 z"
       id="path10"
       sodipodi:nodetypes="ccccccccccccccccc" /><path
       style="color:#000000;fill:#666666;fill-opacity:1;stroke:none;stroke-width:0.9;stroke-linecap:square;stroke-dasharray:none"
       d="m 67.527716,96.880201 h -1.03132 l 0.23614,0.414141 8.75781,16.374998 3.94141,-7.11133 1.8418,11.9375 0.0684,0.41555 0.92372,10e-4 -0.1034,-0.55368 -2.24219,-14.53906 -4.41601,7.9668 z"
       id="path11"
       sodipodi:nodetypes="cccccccccccc" /><path
       style="color:#000000;fill:#666666;fill-opacity:1;stroke:none;stroke-width:0.9;stroke-linecap:square;stroke-dasharray:none"
       d="m 81.027446,96.884186 -5.91992,11.072264 v 0 l 0.48269,1.00242 0.31223,-0.57859 5.66407,-10.595703 h 0.97461 l 3.03158,20.154693 -1.33984,-0.0117 -2.43003,-15.98282 -0.21413,-1.49353 -0.74484,1.1908 0.0703,0.44336 2.54916,16.82568 h 3.16211 l -3.31283,-22.026854 z"
       id="path12"
       sodipodi:nodetypes="ccccccccccccccccc" /><path
       style="fill:none;fill-opacity:1;stroke:#666666;stroke-width:0.9;stroke-linecap:square;stroke-linejoin:miter;stroke-dasharray:none;stroke-opacity:1"
       d="M 100.46347,97.333061 V 118.46304 H 96.016966 V 97.333061 h 2.26201 V 116.1365"
       id="path13"
       sodipodi:nodetypes="cccccc" /><path
       style="fill:none;fill-opacity:1;stroke:#666666;stroke-width:0.9;stroke-linecap:square;stroke-linejoin:miter;stroke-dasharray:none;stroke-opacity:1"
       d="M 109.42528,97.330792 V 118.4609 h 4.23655 v -7.96086 h 4.10129 c 4.10935,-0.66717 6.14782,-2.69676 5.80225,-6.2948 0.0974,-5.20016 -3.21889,-6.873237 -6.14857,-6.873237 h -5.76983 v 8.994857 h 4.93659 c 1.79941,0 2.53115,-1.03274 2.53115,-2.27237 0,-1.36746 -0.55412,-2.39539 -1.99385,-2.3984 h -3.34982 v 2.73325"
       id="path14"
       sodipodi:nodetypes="cccccccccccccc" /><path
       style="fill:none;fill-opacity:1;stroke:#666666;stroke-width:0.9;stroke-linecap:square;stroke-linejoin:miter;stroke-dasharray:none;stroke-opacity:1"
       d="m 111.61197,116.39063 v -7.82257 h 5.24428 c 3.1633,-0.11497 4.51685,-2.24095 4.51685,-3.99361 0,-4.40898 -2.47339,-5.060389 -4.11101,-5.060389 h -3.31497"
       id="path15"
       sodipodi:nodetypes="cccccc" /><path
       style="fill:none;fill-opacity:1;stroke:#666666;stroke-width:0.9;stroke-linecap:square;stroke-linejoin:miter;stroke-dasharray:none;stroke-opacity:1"
       d="m 159.13797,97.331465 -3.3e-4,21.127915 4.31116,-2.4e-4 v -8.13408 h 2.12481 l 4.34012,8.13359 h 5.01716 l -3.75356,-6.93707"
       id="path16"
       sodipodi:nodetypes="cccccccc" /><path
       style="color:#000000;fill:#666666;fill-opacity:1;stroke:none;stroke-width:0.9;stroke-linecap:square;stroke-dasharray:none"
       d="m 160.85949,96.884186 v 19.685544 0.45117 h 0.90039 v -0.45117 -18.785153 h 5.35546 c 1.09198,0 2.78055,0.291826 4.14454,1.195312 1.36317,0.902943 2.43816,2.369461 2.43945,4.927731 -0.0695,3.71491 -2.86957,5.85352 -5.73242,5.85352 H 167.213 l 3.60742,6.68945 0.21289,0.39649 1.01927,-0.009 -0.43919,-0.81554 -2.96289,-5.49219 c 3.06187,-0.33194 5.87884,-2.73288 5.94922,-6.60938 v -0.006 -0.004 c 0,-2.82291 -1.2724,-4.642098 -2.8418,-5.681641 -1.56939,-1.039543 -3.39734,-1.345703 -4.64258,-1.345703 z"
       id="path17"
       sodipodi:nodetypes="ccccccsscsccccccccsscc" /><path
       style="fill:none;fill-opacity:1;stroke:#666666;stroke-width:0.9;stroke-linecap:square;stroke-linejoin:miter;stroke-dasharray:none;stroke-opacity:1"
       d="m 163.34028,108.13985 h 3.25647 c 2.09593,0 5.37031,-0.72309 5.37031,-4.22767 0,-3.0497 -2.83046,-4.489983 -4.85232,-4.489983 h -3.66577 v 2.349583 h 3.96339 c 1.38668,0 2.09574,0.93498 2.09574,2.14495 0,1.15255 -1.22698,2.06064 -2.39336,2.06064 h -3.666 l 2.3e-4,-2.00543"
       id="path18"
       sodipodi:nodetypes="ccccccccccc" /><path
       style="fill:none;fill-opacity:1;stroke:#666666;stroke-width:0.9;stroke-linecap:square;stroke-linejoin:miter;stroke-dasharray:none;stroke-opacity:1"
       d="m 142.86201,115.85606 h -5.87497 l -1.17863,2.605 h -4.88867 l 9.38007,-21.132134 h 1.31708 l 9.49408,21.132134 h -4.54388 L 144.3757,113.772 h -8.99588 l -1.09369,2.71493"
       id="path24"
       sodipodi:nodetypes="ccccccccccc" /><path
       style="fill:none;fill-opacity:1;stroke:#666666;stroke-width:0.9;stroke-linecap:square;stroke-linejoin:miter;stroke-dasharray:none;stroke-opacity:1"
       d="m 139.30957,110.0441 1.61752,-3.59091 2.54565,5.31573 h -7.12425 l 4.5786,-10.56816 7.1311,15.40845"
       id="path25" /><path
       style="color:#000000;fill:#666666;fill-opacity:1;stroke:none;stroke-width:0.9;stroke-linecap:square;stroke-dasharray:none"
       d="m 186.33713,104.20645 -1.94336,12.04297 -0.0857,0.58171 0.90203,0.006 0.0723,-0.44336 1.52149,-9.42969 6.2539,11.58399 0.20593,0.36299 h 1.02064 l -0.4336,-0.79069 z"
       id="path26"
       sodipodi:nodetypes="ccccccccccc" /><path
       style="color:#000000;fill:#666666;fill-opacity:1;stroke:none;stroke-width:0.9;stroke-linecap:square;stroke-dasharray:none"
       d="m 185.07714,96.880201 -3.15993,22.030859 h 5.23828 l 0.94922,-6.22414 0.0703,-0.44336 -0.73661,-1.3922 -0.22241,1.69884 -0.83203,5.46047 h -3.42579 l 2.64649,-17.99367 9.79687,18.33398 3.09571,-5.85156 0.21093,-0.39844 -1e-5,-1.76269 -1.00585,1.73925 -2.30468,4.35938 z"
       id="path27"
       sodipodi:nodetypes="ccccccccccccccccc" /><path
       style="color:#000000;fill:#666666;fill-opacity:1;stroke:none;stroke-width:0.9;stroke-linecap:square;stroke-dasharray:none"
       d="m 187.39599,96.880201 h -1.03132 l 0.23614,0.414141 8.75781,16.374998 3.94141,-7.11133 1.8418,11.9375 0.0684,0.41555 0.92372,10e-4 -0.1034,-0.55368 -2.24219,-14.53906 -4.41601,7.9668 z"
       id="path28"
       sodipodi:nodetypes="cccccccccccc" /><path
       style="color:#000000;fill:#666666;fill-opacity:1;stroke:none;stroke-width:0.9;stroke-linecap:square;stroke-dasharray:none"
       d="m 200.89572,96.884186 -5.91992,11.072264 v 0 l 0.48269,1.00242 0.31223,-0.57859 5.66407,-10.595703 h 0.97461 l 3.03158,20.154693 -1.33984,-0.0117 -2.43003,-15.98282 -0.21413,-1.49353 -0.74484,1.1908 0.0703,0.44336 2.54916,16.82568 h 3.16211 l -3.31283,-22.026854 z"
       id="path29"
       sodipodi:nodetypes="ccccccccccccccccc" /></g></svg>
